<?xml version="1.0" standalone="no"?><!DOCTYPE svg PUBLIC "-//W3C//DTD SVG 1.1//EN" "http://www.w3.org/Graphics/SVG/1.1/DTD/svg11.dtd"><svg t="1660297178212" class="icon" viewBox="0 0 1024 1024" version="1.1" xmlns="http://www.w3.org/2000/svg" p-id="5890" xmlns:xlink="http://www.w3.org/1999/xlink" width="200" height="200"><defs><style type="text/css">@font-face { font-family: feedback-iconfont; src: url("//at.alicdn.com/t/font_1031158_u69w8yhxdu.woff2?t=1630033759944") format("woff2"), url("//at.alicdn.com/t/font_1031158_u69w8yhxdu.woff?t=1630033759944") format("woff"), url("//at.alicdn.com/t/font_1031158_u69w8yhxdu.ttf?t=1630033759944") format("truetype"); }
</style></defs><path d="M985.742 749.896c0 130.902-106.178 237.004-237.13 237.004H274.336c-130.994 0-237.132-106.102-237.132-237.004V276.018c0-130.902 106.138-236.966 237.132-236.966h474.274c130.954 0 237.13 106.064 237.13 236.966v473.878z" fill="#2D80A6" p-id="5891"></path><path d="M702.684 512.992c0-105.602-85.646-191.108-191.204-191.108-105.676 0-191.212 85.506-191.212 191.108 0 105.532 85.538 190.998 191.212 190.998 105.558 0 191.204-85.466 191.204-190.998z m-3.668-217.102c-17.058 0-30.762 13.884-30.762 30.778a30.66 30.66 0 0 0 30.762 30.738c16.942 0 30.836-13.692 30.836-30.738 0-16.894-13.894-30.778-30.836-30.778z m-343.802-44.124h312.5c57.932 0 105.134 47.286 105.134 104.944v312.454c0 57.812-47.204 104.982-105.134 104.982h-312.5c-57.836 0-105.136-47.17-105.136-104.982V356.71c0.002-57.658 47.3-104.944 105.136-104.944z m312.5-35.018h-312.5c-77.056 0-140.162 63.058-140.162 139.962v312.454c0 77.098 63.106 140.042 140.162 140.042h312.5c77.19 0 140.18-62.944 140.18-140.042V356.71c0-76.904-62.99-139.962-140.18-139.962zM360 512.992c0-83.618 67.842-151.458 151.48-151.458 83.672 0 151.45 67.842 151.45 151.458 0 83.546-67.778 151.35-151.45 151.35-83.638 0-151.48-67.802-151.48-151.35z" fill="#FFFFFF" p-id="5892"></path><path d="M667.714 216.748c77.19 0 140.18 63.058 140.18 139.962v312.454c0 77.098-62.99 140.042-140.18 140.042h-312.5c-77.056 0-140.162-62.944-140.162-140.042V356.71c0-76.904 63.106-139.962 140.162-139.962h312.5m-312.5 557.398h312.5c57.932 0 105.134-47.17 105.134-104.982V356.71c0-57.658-47.204-104.944-105.134-104.944h-312.5c-57.836 0-105.136 47.286-105.136 104.944v312.454c0.002 57.812 47.3 104.982 105.136 104.982m343.802-478.256c16.942 0 30.836 13.884 30.836 30.778 0 17.046-13.894 30.738-30.836 30.738a30.66 30.66 0 0 1-30.762-30.738c0-16.894 13.704-30.778 30.762-30.778m-187.536 25.994c105.558 0 191.204 85.506 191.204 191.108 0 105.532-85.646 190.998-191.204 190.998-105.676 0-191.212-85.466-191.212-190.998-0.002-105.602 85.536-191.108 191.212-191.108m0 342.458c83.672 0 151.45-67.802 151.45-151.35 0-83.618-67.778-151.458-151.45-151.458-83.638 0-151.48 67.842-151.48 151.458 0 83.548 67.842 151.35 151.48 151.35m156.234-467.348h-312.5c-42.536 0-82.644 16.664-112.938 46.92-30.294 30.258-46.978 70.316-46.978 112.796v312.454c0 88.112 71.738 159.794 159.916 159.794h312.5c88.188 0 159.934-71.684 159.934-159.794V356.71c0-88.068-71.746-159.716-159.934-159.716z m-312.5 557.398c-47.08 0-85.382-38.234-85.382-85.228V356.71c0-46.974 38.302-85.19 85.382-85.19h312.5c9.818 0 19.254 1.662 28.042 4.718-26.342 1.686-47.256 23.66-47.256 50.428 0 27.842 22.662 50.492 50.516 50.492 26.182 0 47.784-19.954 50.338-45.424a84.772 84.772 0 0 1 3.742 24.976v312.454c0 46.994-38.302 85.228-85.38 85.228H355.214z m156.266-452.262c-56.382 0-109.37 21.924-149.2 61.736-39.832 39.812-61.768 92.772-61.768 149.126 0 56.322 21.938 109.256 61.77 149.048 39.832 39.79 92.818 61.704 149.196 61.704 116.324 0 210.958-94.542 210.958-210.752 0-56.342-21.952-109.304-61.808-149.128-39.842-39.81-92.812-61.734-149.148-61.734z m0 342.458c-72.634 0-131.726-59.034-131.726-131.596 0-72.622 59.092-131.706 131.726-131.706 72.618 0 131.696 59.084 131.696 131.706 0 72.562-59.078 131.596-131.696 131.596z" fill="#174053" p-id="5893"></path><path d="M728.078 956.122H294.83c-124.896 0-226.506-101.636-226.506-226.566V296.358c0-124.908 101.61-226.526 226.506-226.526h433.248c124.918 0 226.544 101.62 226.544 226.526v433.198c0.002 124.928-101.626 226.566-226.544 226.566zM294.83 89.636c-113.976 0-206.702 92.734-206.702 206.72v433.198c0 114.008 92.726 206.762 206.702 206.762h433.248c113.996 0 206.74-92.754 206.74-206.762V296.358c0-113.986-92.744-206.72-206.74-206.72H294.83z" fill="#174053" p-id="5894"></path></svg>