<?xml version="1.0" standalone="no"?><!DOCTYPE svg PUBLIC "-//W3C//DTD SVG 1.1//EN" "http://www.w3.org/Graphics/SVG/1.1/DTD/svg11.dtd"><svg t="1660297128356" class="icon" viewBox="0 0 1024 1024" version="1.1" xmlns="http://www.w3.org/2000/svg" p-id="3172" xmlns:xlink="http://www.w3.org/1999/xlink" width="200" height="200"><defs><style type="text/css">@font-face { font-family: feedback-iconfont; src: url("//at.alicdn.com/t/font_1031158_u69w8yhxdu.woff2?t=1630033759944") format("woff2"), url("//at.alicdn.com/t/font_1031158_u69w8yhxdu.woff?t=1630033759944") format("woff"), url("//at.alicdn.com/t/font_1031158_u69w8yhxdu.ttf?t=1630033759944") format("truetype"); }
</style></defs><path d="M985.742 749.936c0 130.864-106.178 236.964-237.17 236.964H274.318c-130.974 0-237.112-106.102-237.112-236.964V276.018c0-130.902 106.138-236.966 237.112-236.966h474.254c130.992 0 237.17 106.064 237.17 236.966v473.918z" fill="#00ABE3" p-id="3173"></path><path d="M791.552 284.772a245.614 245.614 0 0 1-77.268 29.042c-22.156-23.256-53.766-37.796-88.772-37.796-67.156 0-121.616 53.572-121.616 119.678 0 9.374 1.082 18.474 3.126 27.23-101.082-4.976-190.7-52.608-250.698-125a117.696 117.696 0 0 0-16.48 60.166c0 41.5 21.516 78.102 54.13 99.546a122.874 122.874 0 0 1-55.094-14.926v1.504c0 57.93 41.932 106.284 97.588 117.314a123.816 123.816 0 0 1-32.072 4.204c-7.836 0-15.44-0.772-22.888-2.16 15.516 47.516 60.402 82.114 113.624 83.076-41.644 32.092-94.058 51.22-151.082 51.22-9.842 0-19.492-0.58-29.024-1.658 53.86 33.94 117.812 53.724 186.474 53.724 223.742 0 346.052-182.276 346.052-340.394 0-5.168-0.078-10.336-0.308-15.466a244.898 244.898 0 0 0 60.672-61.942c-21.806 9.526-45.234 15.93-69.858 18.822 25.126-14.81 44.388-38.222 53.494-66.184z" fill="#FFFFFF" p-id="3174"></path><path d="M791.552 284.772a245.614 245.614 0 0 1-77.268 29.042c-22.156-23.256-53.766-37.796-88.772-37.796-67.156 0-121.616 53.572-121.616 119.678 0 9.374 1.082 18.474 3.126 27.23-101.082-4.976-190.7-52.608-250.698-125a117.696 117.696 0 0 0-16.48 60.166c0 41.5 21.516 78.102 54.13 99.546a122.874 122.874 0 0 1-55.094-14.926v1.504c0 57.93 41.932 106.284 97.588 117.314a123.816 123.816 0 0 1-32.072 4.204c-7.836 0-15.44-0.772-22.888-2.16 15.516 47.516 60.402 82.114 113.624 83.076-41.644 32.092-94.058 51.22-151.082 51.22-9.842 0-19.492-0.58-29.024-1.658 53.86 33.94 117.812 53.724 186.474 53.724 223.742 0 346.052-182.276 346.052-340.394 0-5.168-0.078-10.336-0.308-15.466a244.898 244.898 0 0 0 60.672-61.942c-21.806 9.526-45.234 15.93-69.858 18.822 25.126-14.81 44.388-38.222 53.494-66.184z" fill="#FFFFFF" p-id="3175"></path><path d="M625.514 276.018c35.006 0 66.616 14.54 88.772 37.796a245.632 245.632 0 0 0 77.268-29.042c-9.108 27.962-28.37 51.374-53.492 66.182 24.624-2.892 48.05-9.294 69.858-18.822a244.93 244.93 0 0 1-60.672 61.942c0.23 5.128 0.308 10.298 0.308 15.466 0 158.12-122.31 340.394-346.052 340.394-68.662 0-132.614-19.786-186.474-53.724 9.534 1.078 19.182 1.658 29.024 1.658 57.024 0 109.436-19.128 151.082-51.22-53.222-0.962-98.108-35.56-113.624-83.076a124.472 124.472 0 0 0 22.888 2.16c11.116 0 21.844-1.466 32.072-4.204-55.656-11.032-97.588-59.384-97.588-117.314v-1.504a122.848 122.848 0 0 0 55.094 14.926c-32.614-21.444-54.13-58.046-54.13-99.546a117.69 117.69 0 0 1 16.48-60.166c59.998 72.394 149.616 120.026 250.698 125a119.548 119.548 0 0 1-3.126-27.23c-0.002-66.106 54.458-119.676 121.614-119.676m166.038 8.754h0.01m-166.048-28.508c-77.952 0-141.37 62.548-141.37 139.432 0 1.824 0.036 3.646 0.106 5.466-82.916-10.14-159.432-51.552-212.714-115.842a19.764 19.764 0 0 0-16.762-7.088 19.754 19.754 0 0 0-15.444 9.628 137.924 137.924 0 0 0-19.238 70.232 137.694 137.694 0 0 0 16.29 65.024 19.754 19.754 0 0 0-17.254 19.596v1.504c0 41.348 18.636 79.302 48.666 105.142a19.752 19.752 0 0 0-5.062 20.346c12.966 39.708 42.84 70.656 80.326 86.036-30.534 14.728-64.094 22.376-99.004 22.376-8.792 0-17.81-0.516-26.804-1.534a19.756 19.756 0 0 0-12.752 36.342c58.932 37.136 127.056 56.766 197.004 56.766 56.278 0 108.984-11.012 156.652-32.728 43.79-19.95 82.476-48.462 114.988-84.744 59.844-66.784 94.166-155.234 94.166-242.676 0-1.982-0.012-3.886-0.036-5.722a262.89 262.89 0 0 0 56.988-60.59 19.75 19.75 0 0 0-16.35-30.85c-2.498 0-5.02 0.474-7.432 1.454a137.684 137.684 0 0 0 9.648-22.314 19.7 19.7 0 0 0 1.184-6.748c0-10.852-8.744-19.66-19.574-19.752h-0.188a19.646 19.646 0 0 0-10.24 2.86 225.134 225.134 0 0 1-60.9 24.404c-25.836-23.01-59.822-36.02-94.894-36.02z" fill="#0080AA" p-id="3176"></path><path d="M728.078 956.122H294.83c-124.896 0-226.506-101.636-226.506-226.566V296.358c0-124.908 101.61-226.526 226.506-226.526h433.248c124.918 0 226.544 101.62 226.544 226.526v433.198c0.002 124.928-101.626 226.566-226.544 226.566zM294.83 89.636c-113.976 0-206.702 92.734-206.702 206.72v433.198c0 114.008 92.726 206.762 206.702 206.762h433.248c113.996 0 206.74-92.754 206.74-206.762V296.358c0-113.986-92.744-206.72-206.74-206.72H294.83z" fill="#0080AA" p-id="3177"></path></svg>